<svg width="42" height="42" viewBox="0 0 42 42" fill="none" xmlns="http://www.w3.org/2000/svg">
<rect x="1" y="0.958984" width="40" height="40" rx="4" stroke="white"/>
<path fill-rule="evenodd" clip-rule="evenodd" d="M16.8763 11.0179C17.9431 10.9693 18.2836 10.9578 20.9999 10.9578C23.716 10.9578 24.0566 10.9693 25.1234 11.0179C26.1879 11.0665 26.9149 11.2356 27.5511 11.4828C28.2088 11.7384 28.7665 12.0804 29.3225 12.6364C29.8785 13.1924 30.2205 13.7501 30.4761 14.4078C30.7233 15.044 30.8924 15.771 30.941 16.8355C30.9896 17.9022 31.0011 18.2428 31.0011 20.959C31.0011 23.6752 30.9896 24.0158 30.941 25.0825C30.8924 26.147 30.7233 26.8741 30.4761 27.5102C30.2205 28.1679 29.8785 28.7256 29.3225 29.2817C28.7665 29.8377 28.2088 30.1796 27.5511 30.4352C26.9149 30.6824 26.1879 30.8515 25.1234 30.9001C24.0566 30.9487 23.716 30.9603 20.9999 30.9603C18.2836 30.9603 17.9431 30.9487 16.8763 30.9001C15.8118 30.8515 15.0848 30.6824 14.4486 30.4352C13.7909 30.1796 13.2332 29.8377 12.6771 29.2817C12.1211 28.7256 11.7792 28.1679 11.5236 27.5102C11.2764 26.8741 11.1073 26.147 11.0587 25.0825C11.01 24.0158 10.9985 23.6752 10.9985 20.959C10.9985 18.2428 11.01 17.9022 11.0587 16.8355C11.1073 15.771 11.2764 15.044 11.5236 14.4078C11.7792 13.7501 12.1211 13.1924 12.6771 12.6364C13.2332 12.0804 13.7909 11.7384 14.4486 11.4828C15.0848 11.2356 15.8118 11.0665 16.8763 11.0179ZM25.0412 12.8181C23.9866 12.77 23.6703 12.7598 20.9999 12.7598C18.3294 12.7598 18.0131 12.77 16.9585 12.8181C15.9833 12.8626 15.4538 13.0255 15.1014 13.1625C14.6345 13.3439 14.3014 13.5606 13.9514 13.9106C13.6014 14.2606 13.3847 14.5937 13.2032 15.0606C13.0663 15.413 12.9034 15.9425 12.8589 16.9176C12.8108 17.9722 12.8006 18.2886 12.8006 20.959C12.8006 23.6295 12.8108 23.9458 12.8589 25.0004C12.9034 25.9755 13.0663 26.505 13.2032 26.8575C13.3847 27.3243 13.6014 27.6575 13.9514 28.0074C14.3014 28.3574 14.6345 28.5741 15.1014 28.7556C15.4538 28.8925 15.9833 29.0555 16.9585 29.0999C18.0129 29.148 18.3292 29.1582 20.9999 29.1582C23.6705 29.1582 23.9868 29.148 25.0412 29.0999C26.0163 29.0555 26.5459 28.8925 26.8983 28.7556C27.3652 28.5741 27.6983 28.3574 28.0483 28.0074C28.3983 27.6575 28.615 27.3243 28.7964 26.8575C28.9334 26.505 29.0963 25.9755 29.1408 25.0004C29.1889 23.9458 29.1991 23.6295 29.1991 20.959C29.1991 18.2886 29.1889 17.9722 29.1408 16.9176C29.0963 15.9425 28.9334 15.413 28.7964 15.0606C28.615 14.5937 28.3983 14.2606 28.0483 13.9106C27.6983 13.5606 27.3652 13.3439 26.8983 13.1625C26.5459 13.0255 26.0163 12.8626 25.0412 12.8181ZM27.5387 15.6203C27.5387 16.2832 27.0014 16.8205 26.3386 16.8205C25.6758 16.8205 25.1384 16.2832 25.1384 15.6203C25.1384 14.9575 25.6758 14.4202 26.3386 14.4202C27.0014 14.4202 27.5387 14.9575 27.5387 15.6203ZM17.6661 20.959C17.6661 22.8002 19.1586 24.2928 20.9999 24.2928C22.841 24.2928 24.3336 22.8002 24.3336 20.959C24.3336 19.1178 22.841 17.6253 20.9999 17.6253C19.1586 17.6253 17.6661 19.1178 17.6661 20.959ZM15.864 20.959C15.864 18.1226 18.1634 15.8232 20.9999 15.8232C23.8363 15.8232 26.1356 18.1226 26.1356 20.959C26.1356 23.7954 23.8363 26.0948 20.9999 26.0948C18.1634 26.0948 15.864 23.7954 15.864 20.959Z" fill="white"/>
</svg>
