<svg width="42" height="42" viewBox="0 0 42 42" fill="none" xmlns="http://www.w3.org/2000/svg">
<rect x="1" y="0.958984" width="40" height="40" rx="4" stroke="white"/>
<path fill-rule="evenodd" clip-rule="evenodd" d="M14.1784 16.2951C12.9747 16.2951 12 15.3798 12 14.127C12 12.8756 12.9747 11.959 14.1784 11.959C15.3822 11.959 16.3569 12.8756 16.3569 14.127C16.3569 15.3798 15.3822 16.2951 14.1784 16.2951ZM30 29.959H26.2213V23.4088C26.2213 21.4766 25.3988 20.8795 24.3375 20.8795C23.2161 20.8795 22.1171 21.7221 22.1171 23.4563V29.959H18.337V17.965H21.9719V19.6266H22.0208C22.3853 18.8886 23.663 17.6288 25.6124 17.6288C27.721 17.6288 30 18.8774 30 22.5411V29.959ZM16.0678 17.9567V29.9506H12.2891V17.9567H16.0678Z" fill="white"/>
</svg>
