<svg width="16" height="17" viewBox="0 0 16 17" fill="none" xmlns="http://www.w3.org/2000/svg">
<path fill-rule="evenodd" clip-rule="evenodd" d="M11.7333 10.559C10.6667 11.6257 10.6667 12.6923 9.6 12.6923C8.53333 12.6923 7.46667 11.6257 6.4 10.559C5.33333 9.49232 4.26667 8.42565 4.26667 7.35898C4.26667 6.29232 5.33333 6.29232 6.4 5.22565C7.46667 4.15898 4.26667 0.958984 3.2 0.958984C2.13333 0.958984 0 4.15898 0 4.15898C0 6.29232 2.192 10.6177 4.26667 12.6923C6.34133 14.767 10.6667 16.959 12.8 16.959C12.8 16.959 16 14.8257 16 13.759C16 12.6923 12.8 9.49232 11.7333 10.559Z" fill="white"/>
</svg>
